nColumns=19
nRows=93
DataType=double
version=3
OpenSimVersion=4.1
endheader
time	ground_force_1_vx	ground_force_1_vy	ground_force_1_vz	ground_force_1_px	ground_force_1_py	ground_force_1_pz	ground_force_1_mx	ground_force_1_my	ground_force_1_mz	ground_force_2_vx	ground_force_2_vy	ground_force_2_vz	ground_force_2_px	ground_force_2_py	ground_force_2_pz	ground_force_2_mx	ground_force_2_my	ground_force_2_mz
3.38	-5.32492	3.64659	0.322296	1.19567	0	-0.448366	0	-6.58724e-09	0	89.659	801.372	51.1743	0.726188	0	-0.591264	0	-5.12673	0
3.385	-6.63052	5.15675	0.570537	1.20051	0	-0.448817	0	-2.0922e-08	0	94.0959	806.944	53.0242	0.727645	0	-0.59021	0	-5.59016	0
3.39	-8.89559	7.79553	0.906102	1.20415	0	-0.449162	0	-8.23209e-08	0	97.7071	810.588	53.3886	0.729264	0	-0.589012	0	-6.06876	0
3.395	-13.3707	12.8981	1.08534	1.20673	0	-0.449285	0	-3.42883e-07	0	100.998	811.114	52.9091	0.731064	0	-0.587687	0	-6.50918	0
3.4	-19.8027	21.0372	0.457417	1.20834	0	-0.449251	0	-1.78977e-06	0	104.56	808.864	52.0223	0.732981	0	-0.586268	0	-6.87387	0
3.405	-15.6331	31.7394	-1.39014	1.20887	0	-0.449185	0	-2.23966e-05	0	108.45	804.376	50.9217	0.73498	0	-0.584784	0	-7.07973	0
3.41	-2.35245	48.6558	-2.17472	1.20944	0	-0.449169	0	-9.70438e-05	0	112.59	797.197	49.1176	0.737107	0	-0.583197	0	-7.06052	0
3.415	5.71686	82.28	-0.782853	1.2101	0	-0.449139	0	-0.000341785	0	116.778	786.986	47.1183	0.739427	0	-0.581415	0	-6.80241	0
3.42	7.55073	132.289	2.6708	1.21064	0	-0.449085	0	-0.00114508	0	120.841	773.384	44.6937	0.741987	0	-0.579376	0	-6.34368	0
3.425	5.35109	183.845	5.37467	1.21116	0	-0.449034	0	-0.00379406	0	124.423	756.267	41.5214	0.744768	0	-0.577147	0	-5.73145	0
3.43	1.17609	226.171	7.54101	1.21171	0	-0.448952	0	-0.0112637	0	127.573	735.763	38.4791	0.747703	0	-0.574855	0	-5.03346	0
3.435	-3.81427	257.064	9.53507	1.21237	0	-0.4488	0	-0.027827	0	130.066	711.539	35.2384	0.750743	0	-0.572604	0	-4.32246	0
3.44	-10.3428	278.399	10.2354	1.21318	0	-0.44854	0	-0.0574379	0	131.756	683.674	31.7464	0.753827	0	-0.57052	0	-3.67381	0
3.445	-18.0443	293.538	9.66054	1.21425	0	-0.448108	0	-0.100461	0	132.602	652.31	28.2244	0.756867	0	-0.568756	0	-3.1153	0
3.45	-25.9428	306.16	8.06076	1.21564	0	-0.447457	0	-0.15126	0	132.153	616.766	24.5278	0.759796	0	-0.567449	0	-2.59036	0
3.455	-33.4414	319.065	5.66083	1.21732	0	-0.446617	0	-0.19545	0	130.747	575.369	20.5413	0.762684	0	-0.566665	0	-2.06832	0
3.46	-40.0979	333.455	2.6674	1.21914	0	-0.445693	0	-0.216042	0	129.409	528.707	16.4311	0.765629	0	-0.566486	0	-1.59727	0
3.465	-45.8749	350.164	-0.775706	1.22113	0	-0.444697	0	-0.229488	0	127.87	478.199	12.1912	0.76895	0	-0.566697	0	-1.18842	0
3.47	-51.5373	371.36	-4.48165	1.22381	0	-0.443338	0	-0.28627	0	123.384	422.272	7.84603	0.773119	0	-0.567084	0	-0.826493	0
3.475	-57.5203	400.515	-8.21516	1.22788	0	-0.441261	0	-0.416963	0	115.176	356.362	4.49968	0.778856	0	-0.567675	0	-0.501514	0
3.48	-63.6572	437.982	-11.9273	1.23341	0	-0.438604	0	-0.601464	0	107.021	284.672	1.16868	0.787027	0	-0.568465	0	-0.222795	0
3.485	-70.3391	479.247	-15.4864	1.23982	0	-0.435931	0	-0.839573	0	99.5968	225.732	-2.13479	0.796412	0	-0.570138	0	-0.0313695	0
3.49	-77.3649	517.937	-18.7238	1.24651	0	-0.433725	0	-1.2306	0	90.2243	199.3	-5.36926	0.799267	0	-0.571352	0	0.000781866	0
3.495	-83.7747	550.127	-21.7153	1.25312	0	-0.432034	0	-1.7486	0	81.938	183.392	-6.9558	0.799662	0	-0.571407	0	4.06832e-06	0
3.5	-89.4742	577.226	-24.3688	1.25973	0	-0.430559	0	-2.16522	0	77.8603	174.121	-8.2916	0.80021	0	-0.57148	0	2.61725e-07	0
3.505	-94.6021	602.133	-27.0797	1.2665	0	-0.429194	0	-2.40128	0	69.9939	170.211	-9.40086	0.800698	0	-0.571555	0	8.0911e-08	0
3.51	-98.466	625.03	-29.8523	1.2733	0	-0.428082	0	-2.61455	0	60.2984	168.024	-9.35551	0.801236	0	-0.571617	0	2.76573e-08	0
3.515	-101.056	644.656	-32.4413	1.27963	0	-0.427238	0	-2.84062	0	50.0312	163.504	-8.12766	0.801893	0	-0.571682	0	1.10913e-09	0
3.52	-102.592	661.99	-35.1521	1.28511	0	-0.426546	0	-2.91529	0	42.6058	152.856	-7.58596	0.802754	0	-0.571786	0	-3.40597e-10	0
3.525	-103.156	678.987	-37.7695	1.28977	0	-0.425917	0	-2.85443	0	35.856	133.5	-5.90955	0.803776	0	-0.571881	0	-1.6378e-12	0
3.53	-102.661	694.718	-40.2818	1.29381	0	-0.425392	0	-2.89215	0	28.8726	105.576	-2.24626	0.804951	0	-0.571929	0	2.44249e-15	0
3.535	-101.508	709.256	-41.9429	1.29733	0	-0.425007	0	-3.06742	0	15.5743	70.1084	-4.35853	0.806083	0	-0.57216	0	8.88178e-16	0
3.54	-99.487	727.24	-43.1065	1.30011	0	-0.424657	0	-2.96599	0	-3.12676	32.0691	-9.76382	0.806938	0	-0.572665	0	-8.88178e-16	0
3.545	-96.7804	749.346	-44.5112	1.30195	0	-0.424248	0	-2.54175	0	-1.39935	2.03114	-1.28288	0.808442	0	-0.572593	0	-2.22045e-16	0
3.55	-94.2726	766.033	-45.2095	1.30332	0	-0.423849	0	-2.41783	0	0.0669356	-0.0780844	0.0465577	0.812202	0	-0.571206	0	0	0
3.555	-91.4791	773.354	-45.434	1.30485	0	-0.423535	0	-2.78958	0	0.169709	-0.177016	0.100988	0.817064	0	-0.569567	0	-1.38778e-17	0
3.56	-88.4507	778.088	-45.8579	1.30653	0	-0.423258	0	-3.14628	0	-0.0792041	0.0724416	-0.0353907	0.822848	0	-0.567974	0	3.46945e-18	0
3.565	-85.686	783.272	-46.2699	1.30811	0	-0.422963	0	-3.27509	0	0.0904598	-0.0718269	0.0264133	0.82994	0	-0.566679	0	0	0
3.57	-83.0081	786.892	-46.5488	1.30959	0	-0.422646	0	-3.35108	0	0.0391021	-0.027999	0.00813576	0.838391	0	-0.565597	0	-2.60209e-18	0
3.575	-80.3925	788.298	-46.905	1.3111	0	-0.42232	0	-3.37495	0	0.0273597	-0.0181446	0.0044683	0.84799	0	-0.564629	0	-4.33681e-19	0
3.58	-77.9457	787.97	-47.2706	1.31269	0	-0.421995	0	-3.27193	0	0.0150069	-0.00926109	0.0019301	0.858711	0	-0.563793	0	-3.25261e-18	0
3.585	-75.6639	786.101	-47.6218	1.31432	0	-0.421675	0	-3.07365	0	0.00720371	-0.00414192	0.000706053	0.870645	0	-0.563114	0	-1.45283e-17	0
3.59	-73.4449	782.74	-47.9636	1.31599	0	-0.421367	0	-2.82823	0	0.00259624	-0.00140252	0.000195491	0.883703	0	-0.562557	0	-6.74103e-17	0
3.595	-71.2927	777.894	-48.2723	1.3177	0	-0.421081	0	-2.55252	0	-0.00441986	0.00225988	-0.000259051	0.897761	0	-0.562096	0	-4.21213e-16	0
3.6	-69.2454	771.592	-48.4616	1.31943	0	-0.420825	0	-2.24997	0	-0.00851682	0.00413983	-0.000386832	0.912745	0	-0.561727	0	-5.47088e-16	0
3.605	-67.3043	763.957	-48.4996	1.32119	0	-0.420603	0	-1.93266	0	-0.00787203	0.00365029	-0.000270135	0.928595	0	-0.561451	0	3.31565e-15	0
3.61	-65.4621	755.113	-48.2997	1.32299	0	-0.420421	0	-1.60586	0	-0.00642302	0.00285479	-0.00016415	0.945191	0	-0.561245	0	2.77179e-15	0
3.615	-63.6923	745.121	-47.8097	1.32481	0	-0.420283	0	-1.27912	0	-0.00509609	0.00218012	-9.55679e-05	0.962423	0	-0.561092	0	1.75162e-15	0
3.62	-62.011	734.136	-47.0088	1.32665	0	-0.420192	0	-0.963474	0	-0.00411939	0.00170252	-5.55431e-05	0.980199	0	-0.560978	0	1.02767e-15	0
3.625	-60.3953	722.359	-45.8884	1.32849	0	-0.42015	0	-0.668044	0	-0.00346153	0.0013865	-3.22557e-05	0.99844	0	-0.560895	0	5.60668e-16	0
3.63	-58.7893	710.01	-44.471	1.33033	0	-0.420156	0	-0.395495	0	-0.0030804	0.00119972	-1.90413e-05	1.01706	0	-0.560828	0	2.32134e-16	0
3.635	-57.1621	697.321	-42.8005	1.33216	0	-0.420204	0	-0.14513	0	-0.00291878	0.00110866	-1.13188e-05	1.03599	0	-0.560768	0	-6.28668e-17	0
3.64	-55.4724	684.517	-40.94	1.33398	0	-0.420287	0	0.0828499	0	-0.00295423	0.00109741	-6.7182e-06	1.05517	0	-0.560708	0	-4.09164e-16	0
3.645	-53.6906	671.833	-38.9743	1.33578	0	-0.420399	0	0.29351	0	-0.00318394	0.00115938	-3.55368e-06	1.07456	0	-0.560646	0	-9.53546e-16	0
3.65	-51.8122	659.464	-36.9775	1.33758	0	-0.420533	0	0.487549	0	-0.00364861	0.00130534	-1.27309e-06	1.09412	0	-0.560576	0	-1.93474e-15	0
3.655	-49.8614	647.581	-35.0634	1.33939	0	-0.420683	0	0.668769	0	-0.00442232	0.00155754	6.66818e-07	1.11382	0	-0.560499	0	-3.87271e-15	0
3.66	-47.8765	636.313	-33.2876	1.34121	0	-0.420846	0	0.838824	0	-0.00564231	0.00195986	2.58021e-06	1.13365	0	-0.560414	0	-7.93771e-15	0
3.665	-45.9056	625.744	-31.7336	1.34304	0	-0.421018	0	1.00061	0	-0.00752613	0.00258206	5.15691e-06	1.1536	0	-0.560324	0	-1.71177e-14	0
3.67	-44.0056	615.925	-30.4307	1.3449	0	-0.421198	0	1.15442	0	-0.0104296	0.00353917	8.9622e-06	1.17364	0	-0.560229	0	-3.85532e-14	0
3.675	-42.219	606.855	-29.3833	1.34677	0	-0.421385	0	1.30241	0	-0.0149101	0.00501067	1.54828e-05	1.19378	0	-0.560132	0	-9.10435e-14	0
3.68	-40.5772	598.514	-28.5906	1.34864	0	-0.421577	0	1.44511	0	-0.021837	0.00727564	2.80009e-05	1.21401	0	-0.560037	0	-2.24283e-13	0
3.685	-39.0771	590.827	-28.0175	1.35051	0	-0.421773	0	1.57911	0	-0.0325232	0.0107536	5.474e-05	1.23434	0	-0.559949	0	-5.74642e-13	0
3.69	-37.7123	583.699	-27.6415	1.35236	0	-0.42197	0	1.70045	0	-0.0489609	0.0160801	0.000111684	1.25477	0	-0.559875	0	-1.52121e-12	0
3.695	-36.4612	577.083	-27.4385	1.35419	0	-0.422167	0	1.81011	0	-0.0740079	0.0241614	0.000232168	1.27529	0	-0.559821	0	-4.14139e-12	0
3.7	-35.2849	571.023	-27.3864	1.35597	0	-0.42236	0	1.91315	0	-0.111712	0.0362792	0.000473324	1.29592	0	-0.559791	0	-1.15113e-11	0
3.705	-34.1184	565.521	-27.455	1.35771	0	-0.422546	0	2.0079	0	-0.167481	0.0541385	0.000935502	1.31665	0	-0.559793	0	-3.24794e-11	0
3.71	-32.9052	560.53	-27.6188	1.3594	0	-0.422722	0	2.08987	0	-0.248218	0.0799117	0.00178561	1.33749	0	-0.559831	0	-9.25099e-11	0
3.715	-31.6582	556.048	-27.8549	1.36103	0	-0.422888	0	2.15401	0	-0.362021	0.116137	0.00329006	1.35845	0	-0.559912	0	-2.64772e-10	0
3.72	-30.3402	552.125	-28.1217	1.36259	0	-0.423041	0	2.19767	0	-0.518358	0.165774	0.00587168	1.37951	0	-0.560045	0	-7.58501e-10	0
3.725	-28.8766	548.869	-28.4056	1.36408	0	-0.423183	0	2.22285	0	-0.727067	0.231875	0.0101655	1.4007	0	-0.56024	0	-2.16782e-09	0
3.73	-27.2914	546.333	-28.6728	1.3655	0	-0.423317	0	2.23425	0	-0.997355	0.317302	0.0169939	1.42199	0	-0.560505	0	-6.15752e-09	0
3.735	-25.5838	544.534	-28.9134	1.36687	0	-0.423444	0	2.23439	0	-1.33553	0.424023	0.0273496	1.44341	0	-0.560848	0	-1.73144e-08	0
3.74	-23.7729	543.486	-29.0904	1.36819	0	-0.423568	0	2.22554	0	-1.74335	0.552644	0.0422796	1.46492	0	-0.561278	0	-4.79838e-08	0
3.745	-21.8925	543.222	-29.1764	1.36947	0	-0.423693	0	2.20934	0	-2.2153	0.701559	0.0627299	1.48653	0	-0.561799	0	-1.30448e-07	0
3.75	-19.9445	543.725	-29.1511	1.37074	0	-0.423825	0	2.18209	0	-2.73939	0.86721	0.0894512	1.50823	0	-0.562419	0	-3.46001e-07	0
3.755	-17.9192	544.98	-28.9883	1.37201	0	-0.423968	0	2.13946	0	-3.29419	1.04311	0.12272	1.53	0	-0.563145	0	-8.90387e-07	0
3.76	-15.8023	546.945	-28.6857	1.37328	0	-0.424124	0	2.07748	0	-3.85255	1.22103	0.162203	1.55182	0	-0.563984	0	-2.20934e-06	0
3.765	-13.5696	549.614	-28.2585	1.37459	0	-0.424295	0	1.9899	0	-4.38	1.39037	0.206576	1.57368	0	-0.564947	0	-5.24968e-06	0
3.77	-11.1935	552.958	-27.7307	1.37591	0	-0.424475	0	1.87523	0	-4.83412	1.53794	0.253142	1.59556	0	-0.56605	0	-1.18361e-05	0
3.775	-8.67124	556.943	-27.1963	1.37727	0	-0.424664	0	1.743	0	-5.16537	1.64804	0.297602	1.61742	0	-0.567317	0	-2.50681e-05	0
3.78	-6.03326	561.524	-26.6725	1.37866	0	-0.424863	0	1.60075	0	-5.31684	1.70235	0.334299	1.63924	0	-0.568794	0	-4.93309e-05	0
3.785	-3.30374	566.653	-26.2639	1.38009	0	-0.425075	0	1.45748	0	-5.23253	1.68235	0.356282	1.66095	0	-0.570559	0	-8.89762e-05	0
3.79	-0.528484	572.289	-26.0194	1.38155	0	-0.425303	0	1.32048	0	-4.86341	1.57127	0.356146	1.68246	0	-0.572742	0	-0.000143821	0
3.795	2.22892	578.381	-25.9668	1.38304	0	-0.425546	0	1.19216	0	-4.20185	1.36507	0.328578	1.7036	0	-0.575554	0	-0.000202608	0
3.8	4.95434	584.919	-26.1435	1.38455	0	-0.425804	0	1.07288	0	-3.29375	1.07669	0.272843	1.72412	0	-0.579335	0	-0.000239591	0
3.805	7.6225	591.941	-26.5362	1.38606	0	-0.426076	0	0.961082	0	-2.27178	0.747669	0.197438	1.74352	0	-0.584669	0	-0.000226248	0
3.81	10.2313	599.543	-27.1259	1.38754	0	-0.426363	0	0.859073	0	-1.31947	0.437427	0.118803	1.76074	0	-0.592726	0	-0.000158168	0
3.815	12.8097	607.718	-27.8463	1.38898	0	-0.426666	0	0.774641	0	-0.60404	0.201809	0.0555241	1.77299	0	-0.606442	0	-6.91605e-05	0
3.82	15.3873	616.427	-28.6677	1.39038	0	-0.426984	0	0.713685	0	-0.188849	0.0636074	0.0174652	1.76857	0	-0.637442	0	-8.10061e-06	0
3.825	18.0278	625.715	-29.4869	1.39173	0	-0.427319	0	0.677029	0	-0.0688243	0.0233593	0.0063947	1.76404	0	-0.659956	0	1.09302e-06	0
3.83	20.769	635.579	-30.266	1.39305	0	-0.42767	0	0.661487	0	-0.0278443	0.00953676	0.00258528	1.77127	0	-0.653415	0	1.8403e-06	0
3.835	23.6478	645.914	-30.9746	1.39436	0	-0.428039	0	0.664751	0	-0.0118516	0.00410357	0.00110866	1.76296	0	-0.645081	0	8.53961e-07	0
3.84	26.6957	656.605	-31.5858	1.39566	0	-0.428427	0	0.685495	0	-0.00834645	0.00292063	0.000773779	1.77391	0	-0.647711	0	8.84005e-07	0
